<svg width="20" height="14" viewBox="0 0 20 14" fill="none" xmlns="http://www.w3.org/2000/svg">
<path d="M19.0306 1.28062L7.03055 13.2806C6.9609 13.3503 6.87818 13.4057 6.78713 13.4434C6.69609 13.4812 6.59849 13.5006 6.49993 13.5006C6.40137 13.5006 6.30377 13.4812 6.21272 13.4434C6.12168 13.4057 6.03896 13.3503 5.9693 13.2806L0.719304 8.03061C0.578573 7.88988 0.499512 7.69901 0.499512 7.49999C0.499512 7.30097 0.578573 7.1101 0.719304 6.96936C0.860034 6.82863 1.05091 6.74957 1.24993 6.74957C1.44895 6.74957 1.63982 6.82863 1.78055 6.96936L6.49993 11.6897L17.9693 0.219364C18.11 0.0786339 18.3009 -0.000427248 18.4999 -0.000427246C18.699 -0.000427245 18.8898 0.0786339 19.0306 0.219364C19.1713 0.360095 19.2503 0.550967 19.2503 0.74999C19.2503 0.949013 19.1713 1.13988 19.0306 1.28062Z" fill="#F6F4F5"/>
</svg>
