<svg width="10" height="11" viewBox="0 0 10 11" fill="none" xmlns="http://www.w3.org/2000/svg">
<path d="M7.14032 4.10969C7.17518 4.14451 7.20284 4.18587 7.22171 4.2314C7.24058 4.27692 7.2503 4.32572 7.2503 4.375C7.2503 4.42428 7.24058 4.47308 7.22171 4.5186C7.20284 4.56413 7.17518 4.60549 7.14032 4.64031L4.51532 7.26531C4.48049 7.30018 4.43913 7.32784 4.3936 7.34671C4.34808 7.36558 4.29928 7.37529 4.25 7.37529C4.20072 7.37529 4.15192 7.36558 4.1064 7.34671C4.06088 7.32784 4.01952 7.30018 3.98469 7.26531L2.85969 6.14031C2.78932 6.06995 2.74979 5.97451 2.74979 5.875C2.74979 5.77549 2.78932 5.68005 2.85969 5.60969C2.93005 5.53932 3.02549 5.49979 3.125 5.49979C3.22451 5.49979 3.31995 5.53932 3.39031 5.60969L4.25 6.46984L6.60969 4.10969C6.64452 4.07482 6.68588 4.04716 6.7314 4.02829C6.77692 4.00942 6.82572 3.9997 6.875 3.9997C6.92428 3.9997 6.97308 4.00942 7.0186 4.02829C7.06413 4.04716 7.10549 4.07482 7.14032 4.10969ZM9.875 5.5C9.875 6.46418 9.58909 7.40671 9.05342 8.2084C8.51775 9.01009 7.75637 9.63494 6.86558 10.0039C5.97479 10.3729 4.99459 10.4694 4.04894 10.2813C3.10328 10.0932 2.23464 9.62893 1.55286 8.94715C0.871076 8.26536 0.406777 7.39672 0.218674 6.45107C0.030571 5.50541 0.127112 4.52521 0.496089 3.63442C0.865067 2.74363 1.48991 1.98226 2.2916 1.44659C3.09329 0.910914 4.03582 0.625 5 0.625C6.29251 0.626365 7.5317 1.14042 8.44564 2.05436C9.35958 2.96831 9.87364 4.20749 9.875 5.5ZM9.125 5.5C9.125 4.68415 8.88307 3.88663 8.42981 3.20827C7.97655 2.52992 7.33232 2.00121 6.57857 1.689C5.82483 1.37679 4.99543 1.2951 4.19525 1.45426C3.39508 1.61342 2.66008 2.00629 2.08319 2.58318C1.5063 3.16008 1.11343 3.89508 0.954263 4.69525C0.795099 5.49542 0.876788 6.32482 1.189 7.07857C1.50121 7.83231 2.02992 8.47655 2.70827 8.92981C3.38663 9.38307 4.18415 9.625 5 9.625C6.09364 9.62376 7.14213 9.18876 7.91545 8.41545C8.68877 7.64213 9.12376 6.59364 9.125 5.5Z" fill="#067524"/>
</svg>
