<svg width="10" height="11" viewBox="0 0 10 11" fill="none" xmlns="http://www.w3.org/2000/svg">
<path d="M5 0.625C4.03582 0.625 3.09329 0.910914 2.2916 1.44659C1.48991 1.98226 0.865067 2.74363 0.496089 3.63442C0.127112 4.52521 0.030571 5.50541 0.218674 6.45107C0.406777 7.39672 0.871076 8.26536 1.55286 8.94715C2.23464 9.62893 3.10328 10.0932 4.04894 10.2813C4.99459 10.4694 5.97479 10.3729 6.86558 10.0039C7.75637 9.63494 8.51775 9.01009 9.05342 8.2084C9.58909 7.40671 9.875 6.46418 9.875 5.5C9.87364 4.20749 9.35958 2.96831 8.44564 2.05436C7.5317 1.14042 6.29251 0.626365 5 0.625ZM5 9.625C4.18415 9.625 3.38663 9.38307 2.70827 8.92981C2.02992 8.47655 1.50121 7.83231 1.189 7.07857C0.876788 6.32482 0.795099 5.49542 0.954263 4.69525C1.11343 3.89508 1.5063 3.16008 2.08319 2.58318C2.66008 2.00629 3.39508 1.61342 4.19525 1.45426C4.99543 1.2951 5.82483 1.37679 6.57857 1.689C7.33232 2.00121 7.97655 2.52992 8.42981 3.20827C8.88307 3.88663 9.125 4.68415 9.125 5.5C9.12376 6.59364 8.68877 7.64213 7.91545 8.41545C7.14213 9.18876 6.09364 9.62376 5 9.625ZM8 5.5C8 5.59946 7.96049 5.69484 7.89017 5.76517C7.81984 5.83549 7.72446 5.875 7.625 5.875H5C4.90055 5.875 4.80516 5.83549 4.73484 5.76517C4.66451 5.69484 4.625 5.59946 4.625 5.5V2.875C4.625 2.77554 4.66451 2.68016 4.73484 2.60984C4.80516 2.53951 4.90055 2.5 5 2.5C5.09946 2.5 5.19484 2.53951 5.26517 2.60984C5.33549 2.68016 5.375 2.77554 5.375 2.875V5.125H7.625C7.72446 5.125 7.81984 5.16451 7.89017 5.23484C7.96049 5.30516 8 5.40054 8 5.5Z" fill="#B26903"/>
</svg>
