<svg width="24" height="25" viewBox="0 0 24 25" fill="none" xmlns="http://www.w3.org/2000/svg">
<g clip-path="url(#clip0_25_28)">
<path d="M23.6484 22.9504C23.7598 23.0619 23.8483 23.1943 23.9086 23.3399C23.9689 23.4856 24 23.6417 24 23.7994C24 23.9571 23.9689 24.1132 23.9086 24.2588C23.8483 24.4045 23.7598 24.5369 23.6484 24.6484C23.5369 24.7598 23.4045 24.8483 23.2588 24.9086C23.1132 24.9689 22.9571 25 22.7994 25C22.6417 25 22.4856 24.9689 22.3399 24.9086C22.1943 24.8483 22.0619 24.7598 21.9504 24.6484L12 14.6964L2.04955 24.6484C1.8244 24.8735 1.51902 25 1.2006 25C0.882181 25 0.576804 24.8735 0.351648 24.6484C0.126491 24.4232 6.2768e-09 24.1178 0 23.7994C-6.2768e-09 23.481 0.126491 23.1756 0.351648 22.9504L10.3036 13L0.351648 3.04955C0.126491 2.8244 0 2.51902 0 2.2006C0 1.88218 0.126491 1.5768 0.351648 1.35165C0.576804 1.12649 0.882181 1 1.2006 1C1.51902 1 1.8244 1.12649 2.04955 1.35165L12 11.3036L21.9504 1.35165C22.1756 1.12649 22.481 1 22.7994 1C23.1178 1 23.4232 1.12649 23.6484 1.35165C23.8735 1.5768 24 1.88218 24 2.2006C24 2.51902 23.8735 2.8244 23.6484 3.04955L13.6964 13L23.6484 22.9504Z" fill="#F6F4F5"/>
</g>
<defs>
<clipPath id="clip0_25_28">
<rect width="24" height="24" fill="white" transform="translate(0 0.655643)"/>
</clipPath>
</defs>
</svg>
