<svg width="170" height="30" viewBox="0 0 170 30" fill="none" xmlns="http://www.w3.org/2000/svg">
<path d="M15 0L18.3677 10.3647H29.2658L20.4491 16.7705L23.8168 27.1353L15 20.7295L6.18322 27.1353L9.55093 16.7705L0.734152 10.3647H11.6323L15 0Z" fill="#E2BF4E"/>
<mask id="mask0_325_8" style="mask-type:luminance" maskUnits="userSpaceOnUse" x="70" y="1" width="30" height="28">
<path d="M100 1.52542H70V28.4746H100V1.52542Z" fill="white"/>
</mask>
<g mask="url(#mask0_325_8)">
<path d="M92.8935 12.0788L100 12.0962L76.6799 28.4572L92.8935 12.0788Z" fill="#E2BF4E"/>
<path d="M93.3064 28.4745L86.8532 23.7936L91.5448 26.0261L90.804 20.8665L93.3064 28.4745Z" fill="#E2BF4E"/>
<path d="M88.075 12.6623L84.9642 4.33047L82.209 13.2507L73.2925 13.2179L80.1497 18.5889L78.2602 23.5431L79.5264 18.7908L70 12.1339L81.3566 12.0709L84.9662 1.52542L88.075 12.6623Z" fill="#E2BF4E"/>
</g>
<path d="M157.893 10.5195L158.005 10.8643H167.728L160.155 16.3662L159.861 16.5791L159.974 16.9248L162.864 25.8252L155.294 20.3252L155 20.1113L154.706 20.3252L147.135 25.8252L150.026 16.9248L150.139 16.5791L149.845 16.3662L142.272 10.8643H151.995L152.107 10.5195L155 1.61719L157.893 10.5195Z" stroke="#E2BF4E"/>
</svg>
