<svg width="10" height="10" viewBox="0 0 10 10" fill="none" xmlns="http://www.w3.org/2000/svg">
<path d="M9.76531 2.23468L8.26531 0.734677C8.23049 0.699811 8.18913 0.672151 8.1436 0.65328C8.09808 0.634408 8.04928 0.624695 8 0.624695C7.95072 0.624695 7.90192 0.634408 7.8564 0.65328C7.81087 0.672151 7.76951 0.699811 7.73469 0.734677L3.23469 5.23468C3.19987 5.26953 3.17227 5.3109 3.15345 5.35642C3.13463 5.40194 3.12496 5.45073 3.125 5.49999V6.99999C3.125 7.09945 3.16451 7.19483 3.23484 7.26515C3.30516 7.33548 3.40054 7.37499 3.5 7.37499H5C5.04926 7.37503 5.09805 7.36536 5.14357 7.34654C5.18909 7.32772 5.23046 7.30012 5.26531 7.2653L9.76531 2.7653C9.80018 2.73048 9.82784 2.68912 9.84671 2.64359C9.86558 2.59807 9.87529 2.54927 9.87529 2.49999C9.87529 2.45071 9.86558 2.40191 9.84671 2.35639C9.82784 2.31086 9.80018 2.2695 9.76531 2.23468ZM4.84484 6.62499H3.875V5.65515L6.875 2.65515L7.84484 3.62499L4.84484 6.62499ZM8.375 3.09483L7.40516 2.12499L8 1.53015L8.96984 2.49999L8.375 3.09483ZM9.5 5.49999V9.24999C9.5 9.4489 9.42098 9.63967 9.28033 9.78032C9.13968 9.92097 8.94891 9.99999 8.75 9.99999H1.25C1.05109 9.99999 0.860322 9.92097 0.71967 9.78032C0.579018 9.63967 0.5 9.4489 0.5 9.24999V1.74999C0.5 1.55108 0.579018 1.36031 0.71967 1.21966C0.860322 1.07901 1.05109 0.99999 1.25 0.99999H5C5.09946 0.99999 5.19484 1.0395 5.26517 1.10982C5.33549 1.18015 5.375 1.27553 5.375 1.37499C5.375 1.47445 5.33549 1.56983 5.26517 1.64015C5.19484 1.71048 5.09946 1.74999 5 1.74999H1.25V9.24999H8.75V5.49999C8.75 5.40053 8.78951 5.30515 8.85983 5.23483C8.93016 5.1645 9.02554 5.12499 9.125 5.12499C9.22446 5.12499 9.31984 5.1645 9.39017 5.23483C9.46049 5.30515 9.5 5.40053 9.5 5.49999Z" fill="#064572"/>
</svg>
