<svg width="48" height="48" viewBox="0 0 48 48" fill="none" xmlns="http://www.w3.org/2000/svg">
<path d="M24 0C19.2533 0 14.6131 1.40758 10.6663 4.04473C6.71954 6.68188 3.6434 10.4302 1.8269 14.8156C0.0103988 19.201 -0.464881 24.0266 0.461164 28.6822C1.38721 33.3377 3.67299 37.6141 7.02945 40.9706C10.3859 44.327 14.6623 46.6128 19.3178 47.5388C23.9734 48.4649 28.799 47.9896 33.1844 46.1731C37.5698 44.3566 41.3181 41.2805 43.9553 37.3337C46.5924 33.3869 48 28.7467 48 24C47.9933 17.6369 45.4626 11.5363 40.9631 7.03686C36.4637 2.53744 30.3631 0.00671958 24 0ZM25.8462 44.2223V29.5385H31.3846C31.8743 29.5385 32.3438 29.344 32.69 28.9977C33.0363 28.6515 33.2308 28.1819 33.2308 27.6923C33.2308 27.2027 33.0363 26.7331 32.69 26.3869C32.3438 26.0407 31.8743 25.8461 31.3846 25.8461H25.8462V20.3077C25.8462 19.3284 26.2352 18.3893 26.9276 17.6968C27.6201 17.0044 28.5592 16.6154 29.5385 16.6154H33.2308C33.7204 16.6154 34.19 16.4209 34.5362 16.0747C34.8824 15.7284 35.0769 15.2589 35.0769 14.7692C35.0769 14.2796 34.8824 13.81 34.5362 13.4638C34.19 13.1176 33.7204 12.9231 33.2308 12.9231H29.5385C27.5799 12.9231 25.7016 13.7011 24.3168 15.086C22.9319 16.4709 22.1539 18.3492 22.1539 20.3077V25.8461H16.6154C16.1258 25.8461 15.6562 26.0407 15.31 26.3869C14.9637 26.7331 14.7692 27.2027 14.7692 27.6923C14.7692 28.1819 14.9637 28.6515 15.31 28.9977C15.6562 29.344 16.1258 29.5385 16.6154 29.5385H22.1539V44.2223C16.9495 43.7472 12.1287 41.2841 8.6941 37.3453C5.2595 33.4065 3.47556 28.2952 3.71335 23.0747C3.95114 17.8541 6.19235 12.9262 9.9708 9.31594C13.7492 5.70568 18.774 3.69101 24 3.69101C29.226 3.69101 34.2508 5.70568 38.0292 9.31594C41.8077 12.9262 44.0489 17.8541 44.2867 23.0747C44.5245 28.2952 42.7405 33.4065 39.3059 37.3453C35.8713 41.2841 31.0505 43.7472 25.8462 44.2223Z" fill="#F6F4F5"/>
</svg>
