<svg width="32" height="25" viewBox="0 0 32 25" fill="none" xmlns="http://www.w3.org/2000/svg">
<path d="M32 12.8056C32 13.1593 31.8595 13.4984 31.6095 13.7485C31.3594 13.9985 31.0203 14.139 30.6667 14.139H1.33333C0.979711 14.139 0.640573 13.9985 0.390525 13.7485C0.140476 13.4984 0 13.1593 0 12.8056C0 12.452 0.140476 12.1129 0.390525 11.8628C0.640573 11.6128 0.979711 11.4723 1.33333 11.4723H30.6667C31.0203 11.4723 31.3594 11.6128 31.6095 11.8628C31.8595 12.1129 32 12.452 32 12.8056ZM1.33333 3.47231H30.6667C31.0203 3.47231 31.3594 3.33183 31.6095 3.08178C31.8595 2.83173 32 2.4926 32 2.13897C32 1.78535 31.8595 1.44621 31.6095 1.19617C31.3594 0.946117 31.0203 0.805641 30.6667 0.805641H1.33333C0.979711 0.805641 0.640573 0.946117 0.390525 1.19617C0.140476 1.44621 0 1.78535 0 2.13897C0 2.4926 0.140476 2.83173 0.390525 3.08178C0.640573 3.33183 0.979711 3.47231 1.33333 3.47231ZM30.6667 22.139H1.33333C0.979711 22.139 0.640573 22.2795 0.390525 22.5295C0.140476 22.7795 0 23.1187 0 23.4723C0 23.8259 0.140476 24.1651 0.390525 24.4151C0.640573 24.6652 0.979711 24.8056 1.33333 24.8056H30.6667C31.0203 24.8056 31.3594 24.6652 31.6095 24.4151C31.8595 24.1651 32 23.8259 32 23.4723C32 23.1187 31.8595 22.7795 31.6095 22.5295C31.3594 22.2795 31.0203 22.139 30.6667 22.139Z" fill="#F6F4F5"/>
</svg>
