<svg width="48" height="48" viewBox="0 0 48 48" fill="none" xmlns="http://www.w3.org/2000/svg">
<path d="M24 12.9231C21.8092 12.9231 19.6676 13.5727 17.846 14.7899C16.0244 16.007 14.6046 17.737 13.7663 19.761C12.9279 21.7851 12.7085 24.0123 13.1359 26.161C13.5633 28.3097 14.6183 30.2834 16.1674 31.8326C17.7166 33.3817 19.6903 34.4367 21.839 34.8641C23.9877 35.2915 26.2149 35.0721 28.239 34.2337C30.263 33.3954 31.993 31.9756 33.2101 30.154C34.4273 28.3324 35.0769 26.1908 35.0769 24C35.0739 21.0632 33.9059 18.2475 31.8292 16.1708C29.7525 14.0941 26.9368 12.9261 24 12.9231ZM24 31.3846C22.5395 31.3846 21.1117 30.9515 19.8973 30.1401C18.6829 29.3286 17.7364 28.1753 17.1775 26.826C16.6186 25.4766 16.4723 23.9918 16.7573 22.5593C17.0422 21.1269 17.7455 19.811 18.7783 18.7783C19.811 17.7455 21.1269 17.0422 22.5593 16.7573C23.9918 16.4723 25.4766 16.6186 26.826 17.1775C28.1753 17.7364 29.3286 18.6829 30.1401 19.8973C30.9515 21.1117 31.3846 22.5395 31.3846 24C31.3846 25.9585 30.6066 27.8368 29.2217 29.2217C27.8368 30.6066 25.9585 31.3846 24 31.3846ZM35.0769 0H12.9231C9.49679 0.00366514 6.21188 1.36638 3.78913 3.78913C1.36638 6.21188 0.00366514 9.49679 0 12.9231V35.0769C0.00366514 38.5032 1.36638 41.7881 3.78913 44.2109C6.21188 46.6336 9.49679 47.9963 12.9231 48H35.0769C38.5032 47.9963 41.7881 46.6336 44.2109 44.2109C46.6336 41.7881 47.9963 38.5032 48 35.0769V12.9231C47.9963 9.49679 46.6336 6.21188 44.2109 3.78913C41.7881 1.36638 38.5032 0.00366514 35.0769 0ZM44.3077 35.0769C44.3077 37.5251 43.3352 39.873 41.6041 41.6041C39.873 43.3352 37.5251 44.3077 35.0769 44.3077H12.9231C10.4749 44.3077 8.12704 43.3352 6.39594 41.6041C4.66483 39.873 3.69231 37.5251 3.69231 35.0769V12.9231C3.69231 10.4749 4.66483 8.12704 6.39594 6.39594C8.12704 4.66483 10.4749 3.69231 12.9231 3.69231H35.0769C37.5251 3.69231 39.873 4.66483 41.6041 6.39594C43.3352 8.12704 44.3077 10.4749 44.3077 12.9231V35.0769ZM38.7692 12C38.7692 12.5477 38.6068 13.0831 38.3025 13.5385C37.9982 13.9939 37.5657 14.3488 37.0597 14.5584C36.5537 14.768 35.9969 14.8229 35.4597 14.716C34.9226 14.6092 34.4291 14.3454 34.0419 13.9581C33.6546 13.5709 33.3908 13.0774 33.284 12.5403C33.1771 12.0031 33.232 11.4463 33.4416 10.9403C33.6512 10.4342 34.0061 10.0018 34.4615 9.69747C34.9169 9.39318 35.4523 9.23077 36 9.23077C36.7344 9.23077 37.4388 9.52253 37.9581 10.0419C38.4775 10.5612 38.7692 11.2656 38.7692 12Z" fill="#F6F4F5"/>
</svg>
