<svg width="38" height="48" viewBox="0 0 38 48" fill="none" xmlns="http://www.w3.org/2000/svg">
<path d="M19 10.286C17.3047 10.286 15.6475 10.7887 14.2379 11.7305C12.8284 12.6723 11.7297 14.011 11.081 15.5772C10.4322 17.1435 10.2625 18.8669 10.5932 20.5296C10.924 22.1923 11.7403 23.7196 12.939 24.9183C14.1378 26.117 15.6651 26.9334 17.3278 27.2641C18.9905 27.5949 20.7139 27.4251 22.2801 26.7764C23.8463 26.1276 25.185 25.029 26.1268 23.6194C27.0687 22.2099 27.5714 20.5527 27.5714 18.8574C27.5714 16.5841 26.6683 14.4039 25.0609 12.7965C23.4534 11.189 21.2732 10.286 19 10.286ZM19 24.0002C17.9828 24.0002 16.9885 23.6986 16.1427 23.1335C15.297 22.5684 14.6378 21.7652 14.2486 20.8255C13.8593 19.8857 13.7575 18.8517 13.9559 17.8541C14.1544 16.8565 14.6442 15.9401 15.3634 15.2208C16.0827 14.5016 16.999 14.0118 17.9966 13.8133C18.9943 13.6149 20.0283 13.7168 20.9681 14.106C21.9078 14.4953 22.711 15.1544 23.2761 16.0002C23.8412 16.8459 24.1428 17.8402 24.1428 18.8574C24.1428 20.2214 23.601 21.5295 22.6365 22.4939C21.672 23.4584 20.3639 24.0002 19 24.0002ZM19 0.000244141C14.0005 0.00591571 9.20739 1.99447 5.67221 5.52964C2.13704 9.06481 0.148494 13.8579 0.142822 18.8574C0.142822 25.586 3.25211 32.7174 9.14282 39.4824C11.7897 42.5393 14.7688 45.292 18.025 47.6895C18.3132 47.8915 18.6566 47.9998 19.0085 47.9998C19.3605 47.9998 19.7039 47.8915 19.9921 47.6895C23.2423 45.291 26.2156 42.5384 28.8571 39.4824C34.7393 32.7174 37.8571 25.586 37.8571 18.8574C37.8514 13.8579 35.8629 9.06481 32.3277 5.52964C28.7925 1.99447 23.9994 0.00591571 19 0.000244141ZM19 44.1431C15.4578 41.3574 3.57139 31.1252 3.57139 18.8574C3.57139 14.7655 5.1969 10.8412 8.09032 7.94774C10.9837 5.05432 14.9081 3.42882 19 3.42882C23.0919 3.42882 27.0162 5.05432 29.9096 7.94774C32.803 10.8412 34.4285 14.7655 34.4285 18.8574C34.4285 31.121 22.5421 41.3574 19 44.1431Z" fill="#F6F4F5"/>
</svg>
