<svg width="160" height="36" viewBox="0 0 160 36" fill="none" xmlns="http://www.w3.org/2000/svg">
<g clip-path="url(#clip0_9_306)">
<mask id="mask0_9_306" style="mask-type:luminance" maskUnits="userSpaceOnUse" x="0" y="2" width="30" height="28">
<path d="M29.5925 2.50781H0V29.0909H29.5925V2.50781Z" fill="white"/>
</mask>
<g mask="url(#mask0_9_306)">
<path d="M22.5825 12.9179L29.5925 12.935L6.58911 29.0737L22.5825 12.9179Z" fill="#E2BF4E"/>
<path d="M22.9898 29.0909L16.6243 24.4736L21.2521 26.6758L20.5214 21.5863L22.9898 29.0909Z" fill="#E2BF4E"/>
<path d="M17.8294 13.4934L14.7609 5.27476L12.0431 14.0738L3.24778 14.0415L10.0118 19.3395L8.14796 24.2264L9.39697 19.5387L0 12.9722L11.2024 12.9101L14.7629 2.50781L17.8294 13.4934Z" fill="#E2BF4E"/>
</g>
<path d="M142.563 28.7699C143.119 28.7699 143.59 28.5773 143.975 28.1921C144.382 27.7855 144.596 27.304 144.617 26.7476V8.77143C144.617 8.25783 144.414 7.82984 144.008 7.48742C143.601 7.12364 143.119 6.94172 142.563 6.94172H142.178L142.145 6.62071H148.662C149.325 6.62071 150.042 6.55651 150.812 6.42811C151.604 6.29971 152.161 6.17131 152.482 6.04291V10.0875H152.16V9.50974C152.16 8.99614 151.979 8.55742 151.615 8.19363C151.273 7.82984 150.855 7.63724 150.363 7.61582H146.703V17.5348H152.802C153.231 17.5134 153.594 17.3529 153.894 17.0533C154.194 16.7537 154.344 16.3792 154.344 15.9298V15.4804H154.665V20.5523H154.344V20.0707C154.344 19.6428 154.194 19.2789 153.894 18.9793C153.616 18.6797 153.263 18.5192 152.835 18.4978H146.703V28.0958H153.541C155.125 28.0958 156.334 27.7427 157.168 27.0365C158.003 26.3303 158.698 25.2817 159.255 23.8907H159.576L157.714 29.0909H142.145V28.7699H142.563Z" fill="#E2BF4E"/>
<path d="M133.755 29.7008C138.314 31.2844 141.727 32.3544 143.995 32.9108C146.285 33.4886 148.243 33.7775 149.87 33.7775C151.518 33.7775 153.326 33.4031 155.295 32.654L155.455 32.9108C152.845 34.7084 150.212 35.6072 147.559 35.6072C144.841 35.6072 141.748 34.762 138.282 33.0713C135.607 31.7445 133.948 30.942 133.306 30.6638C131.016 29.6366 129.133 29.1123 127.656 29.0909V28.7699H128.074C128.63 28.7699 129.101 28.5773 129.486 28.1921C129.893 27.8069 130.107 27.3254 130.128 26.7476V8.96399C130.107 8.4076 129.893 7.93678 129.486 7.55158C129.101 7.14495 128.63 6.94167 128.074 6.94167H127.656V6.62067H134.686V6.94167H134.269C133.713 6.94167 133.231 7.14495 132.825 7.55158C132.418 7.93678 132.215 8.4076 132.215 8.96399V27.4859C132.215 27.8711 132.236 28.1707 132.279 28.3847C132.322 28.5773 132.461 28.802 132.696 29.0588C132.931 29.3156 133.285 29.5296 133.755 29.7008Z" fill="#E2BF4E"/>
<path d="M119.763 6.62067V29.0909H117.677V6.62067H119.763ZM117.773 26.7476V29.0909H115.205V28.7699C115.205 28.7699 115.269 28.7699 115.398 28.7699C115.548 28.7699 115.622 28.7699 115.622 28.7699C116.179 28.7699 116.65 28.5773 117.035 28.1921C117.442 27.7855 117.655 27.3039 117.677 26.7476H117.773ZM117.773 8.96399H117.677C117.655 8.4076 117.442 7.93678 117.035 7.55158C116.65 7.14495 116.179 6.94167 115.622 6.94167C115.622 6.94167 115.548 6.94167 115.398 6.94167C115.269 6.94167 115.205 6.94167 115.205 6.94167V6.62067H117.773V8.96399ZM119.667 26.7476H119.763C119.785 27.3039 119.988 27.7855 120.373 28.1921C120.78 28.5773 121.261 28.7699 121.818 28.7699C121.818 28.7699 121.882 28.7699 122.01 28.7699C122.139 28.7699 122.213 28.7699 122.235 28.7699V29.0909H119.667V26.7476ZM119.667 8.96399V6.62067H122.235V6.94167C122.213 6.94167 122.139 6.94167 122.01 6.94167C121.882 6.94167 121.818 6.94167 121.818 6.94167C121.261 6.94167 120.78 7.14495 120.373 7.55158C119.988 7.93678 119.785 8.4076 119.763 8.96399H119.667Z" fill="#E2BF4E"/>
<path d="M90.7541 14.1C90.6683 13.8219 90.6257 13.5864 90.6257 13.3938C90.6257 13.1799 90.6362 12.9444 90.6578 12.6876C90.6789 12.4308 90.722 12.0777 90.7862 11.6283C90.8715 11.1789 91.0214 10.7402 91.2356 10.3122C91.4493 9.8628 91.6955 9.43481 91.9739 9.02819C92.2518 8.62162 92.6049 8.2471 93.0332 7.90468C93.4826 7.56226 93.9747 7.26268 94.5098 7.00587C95.6439 6.44948 97.0242 6.17126 98.6508 6.17126C101.925 6.17126 104.589 7.26268 106.643 9.4455C108.719 11.6069 109.757 14.3783 109.757 17.7595C109.757 21.1407 108.537 23.9548 106.098 26.2019C103.658 28.4275 100.566 29.5403 96.8206 29.5403C93.0759 29.5403 89.9621 28.4275 87.4799 26.2019C85.0187 23.9763 83.7883 21.0872 83.7883 17.5348C83.7883 15.245 84.323 13.212 85.3934 11.4357C86.4632 9.65952 87.9935 8.26852 89.9837 7.26268L90.1758 7.55158C88.7849 8.4718 87.7793 9.7986 87.1584 11.532C86.5595 13.2654 86.2596 15.1059 86.2596 17.0533C86.2596 20.6699 87.2441 23.4948 89.2128 25.5278C91.1819 27.5608 93.7073 28.5773 96.789 28.5773C99.8706 28.5773 102.385 27.5608 104.333 25.5278C106.301 23.4733 107.286 20.7769 107.286 17.4385C107.286 14.5494 106.504 12.1098 104.942 10.1196C103.401 8.12938 101.218 7.13427 98.394 7.13427C97.131 7.13427 95.9865 7.35898 94.9592 7.80838C93.0974 8.60021 91.8666 9.90563 91.2677 11.7246C91.0962 12.2596 91.0104 12.7197 91.0104 13.1049C91.0104 13.4901 91.032 13.8005 91.0751 14.0358L90.7541 14.1Z" fill="#E2BF4E"/>
<path d="M59.367 13.0087C58.7034 12.2168 58.3719 11.4358 58.3719 10.6653C58.3719 9.87352 58.554 9.19942 58.9176 8.64303C59.2812 8.06522 59.8701 7.58372 60.6831 7.19851C61.4962 6.79189 62.4165 6.58861 63.4437 6.58861H76.6049C77.2684 6.58861 77.9957 6.52441 78.7877 6.39601C79.6007 6.26761 80.168 6.1392 80.489 6.0108V10.0554L80.168 10.0233V9.47764C80.168 8.96403 79.9859 8.52531 79.6223 8.16152C79.2587 7.77632 78.8303 7.57304 78.3383 7.55162H72.2392V26.7797C72.2608 27.5501 72.6029 28.1279 73.2664 28.5131C73.5874 28.6843 73.93 28.7699 74.2936 28.7699H74.711V29.0909H67.681V28.7699H68.0983C68.6545 28.7699 69.1255 28.5773 69.5107 28.1921C69.9175 27.8069 70.1311 27.3468 70.1527 26.8118V7.55162H63.4437C61.7319 7.55162 60.4905 8.09732 59.7201 9.18873C59.3133 9.74512 59.1102 10.3337 59.1102 10.9543C59.1102 11.5535 59.2812 12.1847 59.6238 12.8482L59.367 13.0087Z" fill="#E2BF4E"/>
<path d="M48.0863 4.56626L47.8616 4.34156C49.488 2.58674 50.8469 1.18502 51.9383 0.136414C52.5161 0.714218 52.955 1.28133 53.2544 1.83773C51.8846 2.62954 50.1622 3.53905 48.0863 4.56626ZM42.4687 28.7699C43.0251 28.7699 43.4959 28.5773 43.8811 28.1921C44.2877 27.7855 44.5017 27.304 44.5231 26.7476V8.7714C44.5231 8.25779 44.3198 7.8298 43.9132 7.48738C43.5066 7.1236 43.0251 6.94168 42.4687 6.94168H42.0835L42.0514 6.62068H48.5678C49.488 6.62068 50.3012 6.54579 51.0074 6.39597C51.7352 6.24616 52.1951 6.12849 52.3877 6.04287V10.0875H52.0667V9.5097C52.0667 8.9961 51.8846 8.55738 51.521 8.19359C51.1784 7.8298 50.7611 7.6372 50.2691 7.61579H46.6096V17.5348H52.7087C53.1365 17.5134 53.5007 17.3529 53.8001 17.0533C54.0995 16.7537 54.2495 16.3792 54.2495 15.9298V15.4804H54.5705V20.5522H54.2495V20.0707C54.2495 19.6427 54.0995 19.2789 53.8001 18.9793C53.5217 18.6797 53.1686 18.5192 52.7408 18.4978H46.6096V28.0958H53.447C55.0305 28.0958 56.2397 27.7427 57.0743 27.0365C57.9089 26.3303 58.6046 25.2816 59.1609 23.8906H59.4819L57.62 29.0909H42.0514V28.7699H42.4687Z" fill="#E2BF4E"/>
</g>
<defs>
<clipPath id="clip0_9_306">
<rect width="160" height="35.6113" fill="white"/>
</clipPath>
</defs>
</svg>
