<svg width="24" height="25" viewBox="0 0 24 25" fill="none" xmlns="http://www.w3.org/2000/svg">
<path d="M9.75 21.0556C9.75 21.3523 9.66203 21.6423 9.4972 21.889C9.33238 22.1357 9.09811 22.3279 8.82403 22.4415C8.54994 22.555 8.24834 22.5847 7.95736 22.5268C7.66639 22.4689 7.39912 22.3261 7.18934 22.1163C6.97956 21.9065 6.8367 21.6392 6.77882 21.3483C6.72094 21.0573 6.75065 20.7557 6.86418 20.4816C6.97771 20.2075 7.16997 19.9733 7.41665 19.8084C7.66332 19.6436 7.95333 19.5556 8.25 19.5556C8.64782 19.5556 9.02936 19.7137 9.31066 19.995C9.59196 20.2763 9.75 20.6578 9.75 21.0556ZM18 19.5556C17.7033 19.5556 17.4133 19.6436 17.1666 19.8084C16.92 19.9733 16.7277 20.2075 16.6142 20.4816C16.5006 20.7557 16.4709 21.0573 16.5288 21.3483C16.5867 21.6392 16.7296 21.9065 16.9393 22.1163C17.1491 22.3261 17.4164 22.4689 17.7074 22.5268C17.9983 22.5847 18.2999 22.555 18.574 22.4415C18.8481 22.3279 19.0824 22.1357 19.2472 21.889C19.412 21.6423 19.5 21.3523 19.5 21.0556C19.5 20.6578 19.342 20.2763 19.0607 19.995C18.7794 19.7137 18.3978 19.5556 18 19.5556ZM22.4728 7.75627L20.0691 16.4075C19.9369 16.8801 19.6542 17.2967 19.2639 17.5941C18.8736 17.8916 18.397 18.0536 17.9062 18.0556H8.64C8.14784 18.0554 7.66926 17.8942 7.27725 17.5967C6.88523 17.2991 6.6013 16.8815 6.46875 16.4075L3.18 4.55564H1.5C1.30109 4.55564 1.11032 4.47662 0.96967 4.33597C0.829018 4.19532 0.75 4.00455 0.75 3.80564C0.75 3.60673 0.829018 3.41596 0.96967 3.27531C1.11032 3.13466 1.30109 3.05564 1.5 3.05564H3.75C3.91397 3.05561 4.07343 3.10931 4.20398 3.20853C4.33452 3.30775 4.42895 3.44702 4.47281 3.60502L5.36156 6.80564H21.75C21.8656 6.80562 21.9797 6.83233 22.0833 6.88369C22.1869 6.93504 22.2772 7.00966 22.3472 7.10169C22.4171 7.19373 22.4649 7.30071 22.4867 7.41426C22.5085 7.52781 22.5037 7.64486 22.4728 7.75627ZM20.7628 8.30564H5.77875L7.91719 16.0063C7.96105 16.1643 8.05548 16.3035 8.18602 16.4027C8.31657 16.502 8.47603 16.5557 8.64 16.5556H17.9062C18.0702 16.5557 18.2297 16.502 18.3602 16.4027C18.4908 16.3035 18.5852 16.1643 18.6291 16.0063L20.7628 8.30564Z" fill="#F6F4F5"/>
</svg>
