<svg width="23" height="20" viewBox="0 0 23 20" fill="none" xmlns="http://www.w3.org/2000/svg">
<path d="M9.75 18.0556C9.75 18.3523 9.66203 18.6423 9.4972 18.889C9.33238 19.1357 9.09811 19.3279 8.82403 19.4415C8.54994 19.555 8.24834 19.5847 7.95736 19.5268C7.66639 19.4689 7.39912 19.3261 7.18934 19.1163C6.97956 18.9065 6.8367 18.6392 6.77882 18.3483C6.72094 18.0573 6.75065 17.7557 6.86418 17.4816C6.97771 17.2075 7.16997 16.9733 7.41665 16.8084C7.66332 16.6436 7.95333 16.5556 8.25 16.5556C8.64782 16.5556 9.02936 16.7137 9.31066 16.995C9.59196 17.2763 9.75 17.6578 9.75 18.0556ZM18 16.5556C17.7033 16.5556 17.4133 16.6436 17.1666 16.8084C16.92 16.9733 16.7277 17.2075 16.6142 17.4816C16.5006 17.7557 16.4709 18.0573 16.5288 18.3483C16.5867 18.6392 16.7296 18.9065 16.9393 19.1163C17.1491 19.3261 17.4164 19.4689 17.7074 19.5268C17.9983 19.5847 18.2999 19.555 18.574 19.4415C18.8481 19.3279 19.0824 19.1357 19.2472 18.889C19.412 18.6423 19.5 18.3523 19.5 18.0556C19.5 17.6578 19.342 17.2763 19.0607 16.995C18.7794 16.7137 18.3978 16.5556 18 16.5556ZM22.4728 4.75627L20.0691 13.4075C19.9369 13.8801 19.6542 14.2967 19.2639 14.5941C18.8736 14.8916 18.397 15.0536 17.9062 15.0556H8.64C8.14784 15.0554 7.66926 14.8942 7.27725 14.5967C6.88523 14.2991 6.6013 13.8815 6.46875 13.4075L3.18 1.55564H1.5C1.30109 1.55564 1.11032 1.47662 0.96967 1.33597C0.829018 1.19532 0.75 1.00455 0.75 0.805641C0.75 0.606729 0.829018 0.415963 0.96967 0.275311C1.11032 0.134659 1.30109 0.0556412 1.5 0.0556412H3.75C3.91397 0.0556097 4.07343 0.109315 4.20398 0.208534C4.33452 0.307754 4.42895 0.447022 4.47281 0.605016L5.36156 3.80564H21.75C21.8656 3.80562 21.9797 3.83233 22.0833 3.88369C22.1869 3.93504 22.2772 4.00966 22.3472 4.10169C22.4171 4.19373 22.4649 4.30071 22.4867 4.41426C22.5085 4.52781 22.5037 4.64486 22.4728 4.75627ZM20.7628 5.30564H5.77875L7.91719 13.0063C7.96105 13.1643 8.05548 13.3035 8.18602 13.4027C8.31657 13.502 8.47603 13.5557 8.64 13.5556H17.9062C18.0702 13.5557 18.2297 13.502 18.3602 13.4027C18.4908 13.3035 18.5852 13.1643 18.6291 13.0063L20.7628 5.30564Z" fill="#F6F4F5"/>
</svg>
