<svg width="19" height="19" viewBox="0 0 19 19" fill="none" xmlns="http://www.w3.org/2000/svg">
<path d="M8.25 17.6042C8.25 17.8031 8.17098 17.9939 8.03033 18.1346C7.88968 18.2752 7.69891 18.3542 7.5 18.3542H1.5C1.30109 18.3542 1.11032 18.2752 0.96967 18.1346C0.829018 17.9939 0.75 17.8031 0.75 17.6042V1.10423C0.75 0.90532 0.829018 0.714555 0.96967 0.573903C1.11032 0.433251 1.30109 0.354233 1.5 0.354233H7.5C7.69891 0.354233 7.88968 0.433251 8.03033 0.573903C8.17098 0.714555 8.25 0.90532 8.25 1.10423C8.25 1.30315 8.17098 1.49391 8.03033 1.63456C7.88968 1.77522 7.69891 1.85423 7.5 1.85423H2.25V16.8542H7.5C7.69891 16.8542 7.88968 16.9333 8.03033 17.0739C8.17098 17.2146 8.25 17.4053 8.25 17.6042ZM18.5306 8.82361L14.7806 5.07361C14.6399 4.93288 14.449 4.85382 14.25 4.85382C14.051 4.85382 13.8601 4.93288 13.7194 5.07361C13.5786 5.21434 13.4996 5.40521 13.4996 5.60423C13.4996 5.80326 13.5786 5.99413 13.7194 6.13486L16.1897 8.60423H7.5C7.30109 8.60423 7.11032 8.68325 6.96967 8.8239C6.82902 8.96455 6.75 9.15532 6.75 9.35423C6.75 9.55315 6.82902 9.74391 6.96967 9.88456C7.11032 10.0252 7.30109 10.1042 7.5 10.1042H16.1897L13.7194 12.5736C13.5786 12.7143 13.4996 12.9052 13.4996 13.1042C13.4996 13.3033 13.5786 13.4941 13.7194 13.6349C13.8601 13.7756 14.051 13.8547 14.25 13.8547C14.449 13.8547 14.6399 13.7756 14.7806 13.6349L18.5306 9.88486C18.6004 9.8152 18.6557 9.73249 18.6934 9.64144C18.7312 9.55039 18.7506 9.45279 18.7506 9.35423C18.7506 9.25567 18.7312 9.15808 18.6934 9.06703C18.6557 8.97598 18.6004 8.89326 18.5306 8.82361Z" fill="#F6F4F5"/>
</svg>
