<svg width="10" height="10" viewBox="0 0 10 10" fill="none" xmlns="http://www.w3.org/2000/svg">
<path d="M9.125 1.75H7.25V1.375C7.25 1.07663 7.13147 0.790483 6.9205 0.579505C6.70952 0.368526 6.42337 0.25 6.125 0.25H3.875C3.57663 0.25 3.29048 0.368526 3.0795 0.579505C2.86853 0.790483 2.75 1.07663 2.75 1.375V1.75H0.875C0.775544 1.75 0.680161 1.78951 0.609835 1.85984C0.539509 1.93016 0.5 2.02554 0.5 2.125C0.5 2.22446 0.539509 2.31984 0.609835 2.39016C0.680161 2.46049 0.775544 2.5 0.875 2.5H1.25V9.25C1.25 9.44891 1.32902 9.63968 1.46967 9.78033C1.61032 9.92098 1.80109 10 2 10H8C8.19891 10 8.38968 9.92098 8.53033 9.78033C8.67098 9.63968 8.75 9.44891 8.75 9.25V2.5H9.125C9.22446 2.5 9.31984 2.46049 9.39017 2.39016C9.46049 2.31984 9.5 2.22446 9.5 2.125C9.5 2.02554 9.46049 1.93016 9.39017 1.85984C9.31984 1.78951 9.22446 1.75 9.125 1.75ZM3.5 1.375C3.5 1.27554 3.53951 1.18016 3.60984 1.10984C3.68016 1.03951 3.77554 1 3.875 1H6.125C6.22446 1 6.31984 1.03951 6.39017 1.10984C6.46049 1.18016 6.5 1.27554 6.5 1.375V1.75H3.5V1.375ZM8 9.25H2V2.5H8V9.25ZM4.25 4.375V7.375C4.25 7.47446 4.21049 7.56984 4.14016 7.64017C4.06984 7.71049 3.97446 7.75 3.875 7.75C3.77554 7.75 3.68016 7.71049 3.60984 7.64017C3.53951 7.56984 3.5 7.47446 3.5 7.375V4.375C3.5 4.27554 3.53951 4.18016 3.60984 4.10984C3.68016 4.03951 3.77554 4 3.875 4C3.97446 4 4.06984 4.03951 4.14016 4.10984C4.21049 4.18016 4.25 4.27554 4.25 4.375ZM6.5 4.375V7.375C6.5 7.47446 6.46049 7.56984 6.39017 7.64017C6.31984 7.71049 6.22446 7.75 6.125 7.75C6.02554 7.75 5.93016 7.71049 5.85983 7.64017C5.78951 7.56984 5.75 7.47446 5.75 7.375V4.375C5.75 4.27554 5.78951 4.18016 5.85983 4.10984C5.93016 4.03951 6.02554 4 6.125 4C6.22446 4 6.31984 4.03951 6.39017 4.10984C6.46049 4.18016 6.5 4.27554 6.5 4.375Z" fill="#790707"/>
</svg>
