<svg width="20" height="20" viewBox="0 0 20 20" fill="none" xmlns="http://www.w3.org/2000/svg">
<path d="M10 0.0556412C8.07164 0.0556412 6.18657 0.627469 4.58319 1.69881C2.97982 2.77016 1.73013 4.2929 0.992179 6.07448C0.254225 7.85606 0.061142 9.81646 0.437348 11.7078C0.813554 13.5991 1.74215 15.3364 3.10571 16.6999C4.46928 18.0635 6.20656 18.9921 8.09787 19.3683C9.98919 19.7445 11.9496 19.5514 13.7312 18.8135C15.5127 18.0755 17.0355 16.8258 18.1068 15.2225C19.1782 13.6191 19.75 11.734 19.75 9.80564C19.7473 7.22062 18.7192 4.74225 16.8913 2.91436C15.0634 1.08648 12.585 0.058371 10 0.0556412ZM4.945 16.3213C5.48757 15.4727 6.23501 14.7744 7.11843 14.2907C8.00185 13.807 8.99283 13.5534 10 13.5534C11.0072 13.5534 11.9982 13.807 12.8816 14.2907C13.765 14.7744 14.5124 15.4727 15.055 16.3213C13.6097 17.4453 11.831 18.0556 10 18.0556C8.16905 18.0556 6.39032 17.4453 4.945 16.3213ZM7 9.05564C7 8.4623 7.17595 7.88228 7.5056 7.38893C7.83524 6.89558 8.30378 6.51107 8.85195 6.284C9.40013 6.05694 10.0033 5.99753 10.5853 6.11329C11.1672 6.22904 11.7018 6.51476 12.1213 6.93432C12.5409 7.35388 12.8266 7.88843 12.9424 8.47037C13.0581 9.05231 12.9987 9.65551 12.7716 10.2037C12.5446 10.7519 12.1601 11.2204 11.6667 11.55C11.1734 11.8797 10.5933 12.0556 10 12.0556C9.20436 12.0556 8.44129 11.7396 7.87868 11.177C7.31607 10.6144 7 9.85129 7 9.05564ZM16.165 15.2816C15.3285 14.0695 14.1524 13.1317 12.7844 12.5863C13.5192 12.0075 14.0554 11.2141 14.3184 10.3165C14.5815 9.41884 14.5582 8.46154 14.252 7.57772C13.9457 6.69389 13.3716 5.92747 12.6096 5.38504C11.8475 4.8426 10.9354 4.55112 10 4.55112C9.06462 4.55112 8.15248 4.8426 7.39044 5.38504C6.62839 5.92747 6.05432 6.69389 5.74805 7.57772C5.44179 8.46154 5.41855 9.41884 5.68157 10.3165C5.94459 11.2141 6.4808 12.0075 7.21563 12.5863C5.84765 13.1317 4.67147 14.0695 3.835 15.2816C2.77804 14.093 2.0872 12.6242 1.84567 11.052C1.60415 9.47991 1.82224 7.87148 2.47368 6.42042C3.12512 4.96936 4.18213 3.73756 5.51745 2.87333C6.85276 2.00911 8.40943 1.54931 10 1.54931C11.5906 1.54931 13.1473 2.00911 14.4826 2.87333C15.8179 3.73756 16.8749 4.96936 17.5263 6.42042C18.1778 7.87148 18.3959 9.47991 18.1543 11.052C17.9128 12.6242 17.222 14.093 16.165 15.2816Z" fill="#F6F4F5"/>
</svg>
