<svg width="24" height="25" viewBox="0 0 24 25" fill="none" xmlns="http://www.w3.org/2000/svg">
<path d="M12 3.05564C10.0716 3.05564 8.18657 3.62747 6.58319 4.69881C4.97982 5.77016 3.73013 7.2929 2.99218 9.07448C2.25422 10.8561 2.06114 12.8165 2.43735 14.7078C2.81355 16.5991 3.74215 18.3364 5.10571 19.6999C6.46928 21.0635 8.20656 21.9921 10.0979 22.3683C11.9892 22.7445 13.9496 22.5514 15.7312 21.8135C17.5127 21.0755 19.0355 19.8258 20.1068 18.2225C21.1782 16.6191 21.75 14.734 21.75 12.8056C21.7473 10.2206 20.7192 7.74225 18.8913 5.91436C17.0634 4.08648 14.585 3.05837 12 3.05564ZM6.945 19.3213C7.48757 18.4727 8.23501 17.7744 9.11843 17.2907C10.0019 16.807 10.9928 16.5534 12 16.5534C13.0072 16.5534 13.9982 16.807 14.8816 17.2907C15.765 17.7744 16.5124 18.4727 17.055 19.3213C15.6097 20.4453 13.831 21.0556 12 21.0556C10.169 21.0556 8.39032 20.4453 6.945 19.3213ZM9 12.0556C9 11.4623 9.17595 10.8823 9.5056 10.3889C9.83524 9.89558 10.3038 9.51107 10.852 9.284C11.4001 9.05694 12.0033 8.99753 12.5853 9.11329C13.1672 9.22904 13.7018 9.51476 14.1213 9.93432C14.5409 10.3539 14.8266 10.8884 14.9424 11.4704C15.0581 12.0523 14.9987 12.6555 14.7716 13.2037C14.5446 13.7519 14.1601 14.2204 13.6667 14.55C13.1734 14.8797 12.5933 15.0556 12 15.0556C11.2044 15.0556 10.4413 14.7396 9.87868 14.177C9.31607 13.6144 9 12.8513 9 12.0556ZM18.165 18.2816C17.3285 17.0695 16.1524 16.1317 14.7844 15.5863C15.5192 15.0075 16.0554 14.2141 16.3184 13.3165C16.5815 12.4188 16.5582 11.4615 16.252 10.5777C15.9457 9.69389 15.3716 8.92747 14.6096 8.38504C13.8475 7.8426 12.9354 7.55112 12 7.55112C11.0646 7.55112 10.1525 7.8426 9.39044 8.38504C8.62839 8.92747 8.05432 9.69389 7.74805 10.5777C7.44179 11.4615 7.41855 12.4188 7.68157 13.3165C7.94459 14.2141 8.4808 15.0075 9.21563 15.5863C7.84765 16.1317 6.67147 17.0695 5.835 18.2816C4.77804 17.093 4.0872 15.6242 3.84567 14.052C3.60415 12.4799 3.82224 10.8715 4.47368 9.42042C5.12512 7.96936 6.18213 6.73756 7.51745 5.87333C8.85276 5.00911 10.4094 4.54931 12 4.54931C13.5906 4.54931 15.1473 5.00911 16.4826 5.87333C17.8179 6.73756 18.8749 7.96936 19.5263 9.42042C20.1778 10.8715 20.3959 12.4799 20.1543 14.052C19.9128 15.6242 19.222 17.093 18.165 18.2816Z" fill="#F6F4F5"/>
</svg>
