<svg width="10" height="11" viewBox="0 0 10 11" fill="none" xmlns="http://www.w3.org/2000/svg">
<path d="M5 0.625C4.03582 0.625 3.09329 0.910914 2.2916 1.44659C1.48991 1.98226 0.865067 2.74363 0.496089 3.63442C0.127112 4.52521 0.030571 5.50541 0.218674 6.45107C0.406777 7.39672 0.871076 8.26536 1.55286 8.94715C2.23464 9.62893 3.10328 10.0932 4.04894 10.2813C4.99459 10.4694 5.97479 10.3729 6.86558 10.0039C7.75637 9.63494 8.51775 9.01009 9.05342 8.2084C9.58909 7.40671 9.875 6.46418 9.875 5.5C9.87364 4.20749 9.35958 2.96831 8.44564 2.05436C7.5317 1.14042 6.29251 0.626365 5 0.625ZM5 9.625C4.18415 9.625 3.38663 9.38307 2.70827 8.92981C2.02992 8.47655 1.50121 7.83231 1.189 7.07857C0.876788 6.32482 0.795099 5.49542 0.954263 4.69525C1.11343 3.89508 1.5063 3.16008 2.08319 2.58318C2.66008 2.00629 3.39508 1.61342 4.19525 1.45426C4.99543 1.2951 5.82483 1.37679 6.57857 1.689C7.33232 2.00121 7.97655 2.52992 8.42981 3.20827C8.88307 3.88663 9.125 4.68415 9.125 5.5C9.12376 6.59364 8.68877 7.64213 7.91545 8.41545C7.14213 9.18876 6.09364 9.62376 5 9.625ZM4.625 5.875V3.25C4.625 3.15054 4.66451 3.05516 4.73484 2.98484C4.80516 2.91451 4.90055 2.875 5 2.875C5.09946 2.875 5.19484 2.91451 5.26517 2.98484C5.33549 3.05516 5.375 3.15054 5.375 3.25V5.875C5.375 5.97446 5.33549 6.06984 5.26517 6.14017C5.19484 6.21049 5.09946 6.25 5 6.25C4.90055 6.25 4.80516 6.21049 4.73484 6.14017C4.66451 6.06984 4.625 5.97446 4.625 5.875ZM5.5625 7.5625C5.5625 7.67375 5.52951 7.78251 5.4677 7.87501C5.4059 7.96751 5.31804 8.03961 5.21526 8.08218C5.11248 8.12476 4.99938 8.1359 4.89026 8.11419C4.78115 8.09249 4.68092 8.03891 4.60225 7.96025C4.52359 7.88158 4.47001 7.78135 4.44831 7.67224C4.42661 7.56312 4.43775 7.45002 4.48032 7.34724C4.52289 7.24446 4.59499 7.15661 4.68749 7.0948C4.78 7.03299 4.88875 7 5 7C5.14919 7 5.29226 7.05926 5.39775 7.16475C5.50324 7.27024 5.5625 7.41332 5.5625 7.5625Z" fill="#790707"/>
</svg>
