<svg width="48" height="48" viewBox="0 0 48 48" fill="none" xmlns="http://www.w3.org/2000/svg">
<path d="M37.7581 27.8865L30.3728 24.1938C30.0821 24.049 29.7583 23.9834 29.4341 24.0036C29.1099 24.0239 28.7968 24.1293 28.5264 24.3092L25.1361 26.571C23.5798 25.7154 22.299 24.4347 21.4434 22.8783L23.7052 19.488C23.8851 19.2176 23.9906 18.9045 24.0108 18.5803C24.0311 18.2562 23.9655 17.9324 23.8206 17.6417L20.1279 10.2564C19.9749 9.94726 19.7383 9.68722 19.445 9.5057C19.1517 9.32418 18.8135 9.22844 18.4685 9.22934C16.0202 9.22934 13.6721 10.202 11.9408 11.9332C10.2095 13.6645 9.23689 16.0126 9.23689 18.461C9.243 23.8456 11.3847 29.0079 15.1922 32.8153C18.9997 36.6228 24.162 38.7645 29.5465 38.7706C30.7589 38.7706 31.9593 38.5318 33.0793 38.0679C34.1994 37.604 35.2171 36.924 36.0743 36.0667C36.9315 35.2095 37.6115 34.1918 38.0755 33.0718C38.5394 31.9517 38.7782 30.7513 38.7782 29.539C38.7784 29.196 38.6831 28.8597 38.5029 28.5678C38.3228 28.2759 38.0648 28.04 37.7581 27.8865ZM29.5465 35.078C25.1409 35.0731 20.9172 33.3208 17.802 30.2056C14.6867 27.0903 12.9344 22.8666 12.9296 18.461C12.9292 17.1804 13.3726 15.9392 14.1843 14.9487C14.996 13.9581 16.1258 13.2795 17.3815 13.0282L20.031 18.3364L17.7762 21.6921C17.6077 21.9448 17.5041 22.2352 17.4748 22.5376C17.4454 22.8399 17.491 23.1448 17.6077 23.4253C18.9287 26.565 21.4264 29.0627 24.5661 30.3837C24.8474 30.5055 25.1546 30.5554 25.46 30.5288C25.7654 30.5022 26.0594 30.4 26.3155 30.2314L29.6873 27.9834L34.9955 30.6329C34.7422 31.8901 34.0606 33.0204 33.0669 33.8311C32.0732 34.6417 30.8289 35.0824 29.5465 35.078ZM24.0075 -0.00231876C19.8636 -0.00322303 15.79 1.06876 12.1833 3.10928C8.57657 5.1498 5.55957 8.08935 3.42596 11.6418C1.29236 15.1943 0.114822 19.2386 0.00798064 23.3811C-0.0988611 27.5237 0.868628 31.6234 2.81628 35.2811L0.196796 43.1395C-0.0201835 43.7901 -0.0516723 44.4884 0.105859 45.1559C0.26339 45.8234 0.603716 46.4339 1.08869 46.9188C1.57367 47.4038 2.18413 47.7441 2.85165 47.9017C3.51917 48.0592 4.21738 48.0277 4.86801 47.8107L12.7265 45.1912C15.9455 46.9034 19.5122 47.8597 23.156 47.9875C26.7998 48.1154 30.4248 47.4114 33.7559 45.9292C37.087 44.4469 40.0366 42.2252 42.3809 39.4327C44.7251 36.6403 46.4024 33.3505 47.2854 29.813C48.1685 26.2755 48.234 22.5834 47.477 19.0168C46.7201 15.4503 45.1605 12.103 42.9168 9.22914C40.6731 6.35528 37.8041 4.03034 34.5277 2.43081C31.2513 0.831273 27.6535 -0.000823276 24.0075 -0.00231876ZM24.0075 44.3096C20.4371 44.3121 16.9294 43.3718 13.8389 41.584C13.6126 41.4528 13.361 41.3711 13.1008 41.3445C12.8406 41.3178 12.5777 41.3467 12.3295 41.4293L3.6979 44.3096L6.57587 35.678C6.65883 35.43 6.68815 35.1672 6.66189 34.907C6.63563 34.6468 6.55439 34.3951 6.42355 34.1687C4.1848 30.2981 3.28596 25.7969 3.86645 21.3633C4.44693 16.9298 6.47431 12.8117 9.63406 9.64797C12.7938 6.48423 16.9093 4.45165 21.3421 3.86557C25.7749 3.27948 30.2773 4.17264 34.1507 6.40649C38.0241 8.64034 41.052 12.09 42.7648 16.2204C44.4776 20.3507 44.7794 24.9308 43.6235 29.2502C42.4676 33.5696 39.9186 37.3868 36.3718 40.1097C32.8251 42.8326 28.4789 44.3089 24.0075 44.3096Z" fill="#F6F4F5"/>
</svg>
